<svg width="244" height="244" viewBox="0 0 244 244" fill="none" xmlns="http://www.w3.org/2000/svg">
<g clip-path="url(#clip0_2177_173)">
<path d="M217.909 105.328C217.811 105.328 217.715 105.357 217.633 105.412L213.161 108.023C213.077 108.075 213.008 108.148 212.96 108.235C212.913 108.322 212.889 108.42 212.89 108.519V113.742C212.89 113.963 212.995 114.131 213.161 114.241L217.633 116.849C217.715 116.904 217.811 116.933 217.909 116.933C218.008 116.933 218.104 116.904 218.186 116.849L222.65 114.241C222.735 114.188 222.805 114.114 222.853 114.026C222.902 113.939 222.927 113.84 222.927 113.74V108.523C222.928 108.423 222.903 108.325 222.854 108.238C222.806 108.151 222.735 108.078 222.65 108.027L218.184 105.414C218.103 105.359 218.007 105.328 217.909 105.328ZM120.513 136.56C119.699 136.56 118.889 136.758 118.199 137.147L96.1839 149.97C95.4785 150.385 94.8938 150.976 94.4878 151.687C94.0819 152.397 93.8688 153.201 93.8698 154.019V179.607C93.8698 181.273 94.7504 182.828 96.1839 183.663L101.979 186.992C104.793 188.379 105.786 188.375 107.053 188.375C111.19 188.375 113.563 185.823 113.563 181.437V156.188C113.561 156.013 113.49 155.845 113.367 155.72C113.243 155.595 113.076 155.523 112.9 155.519H110.09C109.914 155.522 109.745 155.594 109.621 155.719C109.496 155.844 109.425 156.012 109.423 156.188V181.442C109.423 183.385 107.385 185.331 104.131 183.667L98.1169 180.169C97.8958 180.058 97.7833 179.776 97.7833 179.555V153.962C97.7833 153.741 97.8958 153.466 98.1169 153.354L120.125 140.588C120.29 140.477 120.569 140.477 120.79 140.588L142.803 153.354C143.022 153.466 143.131 153.686 143.131 153.964V179.553C143.131 179.83 143.022 180.057 142.803 180.167L120.79 192.99C120.624 193.101 120.346 193.101 120.125 192.99L114.499 189.599C114.333 189.489 114.112 189.433 113.946 189.544C112.402 190.432 112.132 190.549 110.641 191.048C110.309 191.159 109.758 191.378 110.86 191.988L118.199 196.376C118.916 196.763 119.686 196.984 120.513 196.984C121.341 196.984 122.166 196.765 122.828 196.488L144.843 183.665C145.549 183.25 146.135 182.657 146.541 181.945C146.947 181.234 147.159 180.428 147.157 179.609V154.019C147.157 152.353 146.276 150.803 144.843 149.97L122.828 137.147C122.119 136.758 121.322 136.556 120.513 136.56ZM154.883 148.245C153.753 148.25 152.672 148.703 151.876 149.504C151.079 150.306 150.634 151.391 150.638 152.521C150.635 153.65 151.08 154.735 151.876 155.536C152.672 156.337 153.754 156.79 154.883 156.795C157.203 156.795 159.13 154.852 159.13 152.521C159.124 151.394 158.676 150.314 157.881 149.515C157.087 148.715 156.01 148.258 154.883 148.245ZM154.826 148.968C155.296 148.962 155.762 149.049 156.198 149.225C156.634 149.402 157.03 149.662 157.364 149.993C157.698 150.324 157.963 150.717 158.144 151.151C158.324 151.585 158.416 152.051 158.415 152.521C158.415 154.465 156.814 156.131 154.828 156.131C152.899 156.131 151.297 154.519 151.297 152.521C151.297 150.523 152.952 148.968 154.826 148.968ZM153.284 150.132V155.016H154.225V153.079H155.053C155.384 153.079 155.493 153.19 155.548 153.466C155.548 153.523 155.712 154.743 155.712 154.965H156.704C156.593 154.743 156.538 154.076 156.482 153.687C156.429 153.077 156.376 152.633 155.712 152.578C156.044 152.466 156.595 152.3 156.595 151.411C156.595 150.134 155.489 150.134 154.94 150.134L153.284 150.132ZM154.113 150.91H154.883C155.161 150.91 155.6 150.91 155.6 151.575C155.6 151.796 155.493 152.244 154.883 152.244H154.111L154.113 150.91ZM126.53 154.742C120.239 154.742 116.487 157.407 116.487 161.903C116.487 166.734 120.239 168.061 126.253 168.672C133.478 169.395 134.031 170.451 134.031 171.894C134.031 174.391 132.04 175.447 127.406 175.447C121.558 175.447 120.29 174.002 119.848 171.061C119.848 170.727 119.577 170.508 119.246 170.508H116.377C116.202 170.51 116.034 170.581 115.911 170.706C115.787 170.83 115.718 170.998 115.717 171.173C115.717 174.948 117.702 179.389 127.359 179.389C134.307 179.389 138.335 176.61 138.335 171.726C138.335 166.951 135.132 165.676 128.35 164.788C121.507 163.899 120.792 163.4 120.792 161.791C120.792 160.458 121.398 158.684 126.472 158.684C130.996 158.684 132.704 159.684 133.367 162.736C133.401 162.874 133.478 162.997 133.588 163.087C133.698 163.176 133.834 163.227 133.975 163.232H136.898C137.065 163.232 137.231 163.123 137.344 163.013C137.444 162.864 137.5 162.69 137.506 162.511C137.065 157.183 133.592 154.742 126.53 154.742Z" fill="#5FA04E"/>
<path d="M164.075 47.0161C163.84 47.0127 163.609 47.0712 163.404 47.1858C163.191 47.3108 163.014 47.4881 162.888 47.701C162.763 47.9139 162.695 48.1551 162.689 48.402V84.4854C162.689 84.8171 162.517 85.1526 162.188 85.3737C162.035 85.4555 161.865 85.4982 161.692 85.4982C161.519 85.4982 161.349 85.4555 161.196 85.3737L155.352 81.9901C154.923 81.745 154.437 81.6161 153.943 81.6161C153.449 81.6161 152.963 81.745 152.534 81.9901L129.149 95.5912C128.716 95.8352 128.355 96.1892 128.103 96.6173C127.851 97.0454 127.717 97.5325 127.713 98.0293V125.174C127.713 126.173 128.266 127.119 129.149 127.618L152.538 141.219C152.967 141.464 153.452 141.593 153.946 141.593C154.44 141.593 154.925 141.464 155.354 141.219L178.742 127.618C179.624 127.119 180.177 126.173 180.177 125.174V57.5081C180.177 56.454 179.624 55.5066 178.742 55.009L164.788 47.1858C164.567 47.0752 164.322 47.0171 164.075 47.0161ZM26.091 80.8826C25.6506 80.8826 25.2103 81.0427 24.8252 81.2638L1.43551 94.8154C0.995924 95.0655 0.631106 95.4285 0.37876 95.8669C0.126414 96.3052 -0.00430605 96.803 0.000108205 97.3087L0.0572957 133.722C0.0572957 134.223 0.329889 134.723 0.772139 134.946C0.97716 135.08 1.21701 135.152 1.4622 135.152C1.70739 135.152 1.94724 135.08 2.15226 134.946L16.0565 126.953C16.939 126.453 17.4861 125.508 17.4861 124.509V107.467C17.4861 106.468 18.039 105.523 18.9235 105.023L24.8252 101.583C25.2655 101.304 25.765 101.194 26.2606 101.194C26.7562 101.194 27.2538 101.304 27.6407 101.583L33.5425 105.023C34.4251 105.523 34.9779 106.468 34.9779 107.467V124.509C34.9779 125.508 35.5269 126.453 36.4076 126.953L50.2012 134.946C50.4156 135.083 50.6646 135.155 50.9189 135.155C51.1732 135.155 51.4222 135.083 51.6366 134.946C51.8562 134.826 52.039 134.649 52.1653 134.434C52.2916 134.218 52.3566 133.972 52.3534 133.722V97.3087C52.3534 96.3099 51.8005 95.3644 50.916 94.863L27.5835 81.2638C27.1905 81.0552 26.7606 80.9251 26.3178 80.8807L26.091 80.8826ZM217.987 81.2829C217.505 81.2829 217.027 81.4087 216.584 81.6603L193.191 95.2538C192.308 95.7532 191.761 96.6987 191.761 97.6995V124.845C191.761 125.843 192.308 126.789 193.191 127.288L216.417 140.607C216.835 140.853 217.311 140.982 217.796 140.982C218.281 140.982 218.757 140.853 219.175 140.607L233.243 132.729C233.462 132.609 233.645 132.432 233.771 132.216C233.897 132.001 233.961 131.755 233.958 131.505C233.961 131.256 233.896 131.011 233.77 130.796C233.644 130.581 233.462 130.404 233.243 130.285L209.745 116.682C209.531 116.556 209.353 116.378 209.228 116.164C209.103 115.95 209.035 115.708 209.03 115.46V106.966C209.027 106.717 209.092 106.472 209.218 106.257C209.344 106.042 209.526 105.865 209.745 105.746L217.084 101.525C217.298 101.389 217.547 101.316 217.802 101.316C218.056 101.316 218.305 101.389 218.519 101.525L225.851 105.744C226.065 105.869 226.245 106.047 226.371 106.261C226.497 106.475 226.566 106.717 226.571 106.966V113.628C226.571 114.129 226.846 114.629 227.286 114.85C227.501 114.987 227.75 115.06 228.005 115.06C228.259 115.06 228.509 114.987 228.723 114.85L242.622 106.691C243.048 106.443 243.401 106.085 243.643 105.655C243.886 105.226 244.009 104.739 244.002 104.246V97.6404C244.002 96.6415 243.449 95.7018 242.622 95.2004L219.396 81.6584C218.968 81.4133 218.483 81.2832 217.989 81.281L217.987 81.2829ZM153.943 101.554C154.067 101.554 154.193 101.583 154.305 101.64L162.3 106.302C162.521 106.413 162.634 106.687 162.634 106.911V116.236C162.634 116.514 162.521 116.739 162.3 116.85L154.303 121.512C154.191 121.567 154.068 121.596 153.943 121.596C153.818 121.596 153.695 121.567 153.583 121.512L145.586 116.85C145.365 116.739 145.253 116.459 145.253 116.236V106.911C145.253 106.632 145.367 106.413 145.586 106.301L153.583 101.64C153.695 101.582 153.817 101.552 153.943 101.554Z" fill="#333333"/>
<path d="M91.4654 81.7657C91.0374 81.5195 90.5523 81.3899 90.0585 81.3899C89.5648 81.3899 89.0797 81.5195 88.6517 81.7657L65.426 95.2562C65.0003 95.5046 64.6483 95.8615 64.4058 96.2906C64.1633 96.7196 64.0391 97.2053 64.0459 97.6981V124.731C64.0459 125.731 64.5987 126.675 65.426 127.174L88.6517 140.663C89.0797 140.909 89.5648 141.039 90.0585 141.039C90.5523 141.039 91.0374 140.909 91.4654 140.663L114.689 127.174C115.572 126.675 116.069 125.731 116.069 124.731V97.6981C116.069 96.6992 115.517 95.7537 114.689 95.2562L91.4654 81.7657Z" fill="url(#paint0_linear_2177_173)"/>
<path d="M114.745 95.2555L91.4102 81.7649C91.1812 81.6489 90.9411 81.5563 90.6935 81.4885L64.5435 126.507C64.7646 126.785 65.0391 127.006 65.3155 127.174L88.6519 140.662C89.3133 141.051 90.0854 141.162 90.8021 140.939L115.353 95.7549C115.191 95.5436 114.983 95.3726 114.745 95.2555Z" fill="url(#paint1_linear_2177_173)"/>
<path d="M114.744 127.171C115.408 126.782 115.903 126.117 116.125 125.395L90.5808 81.4307C89.9212 81.3202 89.2026 81.3755 88.5964 81.7643L65.4259 95.1977L90.4168 141.049C90.7466 140.993 91.1336 140.883 91.4653 140.715L114.744 127.171Z" fill="url(#paint2_linear_2177_173)"/>
</g>
<defs>
<linearGradient id="paint0_linear_2177_173" x1="99.5162" y1="91.811" x2="78.3055" y2="134.812" gradientUnits="userSpaceOnUse">
<stop stop-color="#3F873F"/>
<stop offset="0.33" stop-color="#3F8B3D"/>
<stop offset="0.637" stop-color="#3E9638"/>
<stop offset="0.934" stop-color="#3DA92E"/>
<stop offset="1" stop-color="#3DAE2B"/>
</linearGradient>
<linearGradient id="paint1_linear_2177_173" x1="86.5293" y1="114.37" x2="145.709" y2="70.9139" gradientUnits="userSpaceOnUse">
<stop offset="0.138" stop-color="#3F873F"/>
<stop offset="0.402" stop-color="#52A044"/>
<stop offset="0.713" stop-color="#64B749"/>
<stop offset="0.908" stop-color="#6ABF4B"/>
</linearGradient>
<linearGradient id="paint2_linear_2177_173" x1="63.1962" y1="111.204" x2="116.938" y2="111.204" gradientUnits="userSpaceOnUse">
<stop offset="0.092" stop-color="#6ABF4B"/>
<stop offset="0.287" stop-color="#64B749"/>
<stop offset="0.598" stop-color="#52A044"/>
<stop offset="0.862" stop-color="#3F873F"/>
</linearGradient>
<clipPath id="clip0_2177_173">
<rect width="244" height="244" fill="white"/>
</clipPath>
</defs>
</svg>
