<svg width="244" height="244" viewBox="0 0 244 244" fill="none" xmlns="http://www.w3.org/2000/svg">
<path d="M120.839 23.3475C112.791 23.3856 105.109 24.0699 98.3457 25.2671C78.4254 28.786 74.8112 36.1517 74.8112 49.7376V67.6773H121.882V73.6572H57.144C43.4648 73.6572 31.4859 81.8789 27.7382 97.5254C23.4149 115.454 23.2242 126.643 27.7382 145.365C31.0837 159.301 39.0747 169.229 52.7559 169.229H68.9418V147.723C68.9418 132.185 82.3828 118.481 98.3476 118.481H145.365C158.454 118.481 168.9 107.703 168.9 94.5612V49.7395C168.9 36.981 158.137 27.3982 145.365 25.269C137.275 23.9232 128.886 23.3112 120.839 23.3475ZM95.3834 37.7759C100.244 37.7759 104.217 41.8114 104.217 46.7753C104.217 51.7182 100.246 55.7156 95.3834 55.7156C90.5034 55.7156 86.5518 51.7182 86.5518 46.7753C86.5499 41.8114 90.5034 37.7759 95.3834 37.7759Z" fill="url(#paint0_linear_2176_162)"/>
<path d="M174.769 73.6568V94.5608C174.769 110.764 161.029 124.403 145.363 124.403H98.3456C85.467 124.403 74.811 135.427 74.811 148.325V193.15C74.811 205.905 85.9016 213.41 98.3456 217.068C113.245 221.446 127.534 222.239 145.363 217.068C157.212 213.635 168.898 206.73 168.898 193.15V175.208H121.882V169.227H192.436C206.115 169.227 211.217 159.686 215.975 145.362C220.889 130.617 220.677 116.437 215.975 97.5231C212.593 83.9029 206.136 73.6549 192.436 73.6549L174.769 73.6568ZM148.324 187.168C153.206 187.168 157.157 191.166 157.157 196.112C157.157 201.072 153.204 205.108 148.324 205.108C143.463 205.108 139.492 201.072 139.492 196.112C139.492 191.166 143.463 187.168 148.324 187.168Z" fill="url(#paint1_linear_2176_162)"/>
<path opacity="0.444" d="M185.495 227.981C185.495 234.735 157.252 240.212 122.415 240.212C87.5769 240.212 59.3339 234.735 59.3339 227.981C59.3339 221.227 87.575 215.749 122.415 215.749C157.252 215.749 185.495 221.224 185.495 227.981Z" fill="url(#paint2_radial_2176_162)"/>
<defs>
<linearGradient id="paint0_linear_2176_162" x1="19.7051" y1="28.9569" x2="128.273" y2="121.543" gradientUnits="userSpaceOnUse">
<stop stop-color="#5A9FD4"/>
<stop offset="1" stop-color="#306998"/>
</linearGradient>
<linearGradient id="paint1_linear_2176_162" x1="169.121" y1="179.096" x2="130.186" y2="124.497" gradientUnits="userSpaceOnUse">
<stop stop-color="#FFD43B"/>
<stop offset="1" stop-color="#FFE873"/>
</linearGradient>
<radialGradient id="paint2_radial_2176_162" cx="0" cy="0" r="1" gradientUnits="userSpaceOnUse" gradientTransform="translate(122.161 227.631) rotate(-90) scale(12.2349 53.7827)">
<stop stop-color="#B8B8B8" stop-opacity="0.498"/>
<stop offset="1" stop-color="#7F7F7F" stop-opacity="0"/>
</radialGradient>
</defs>
</svg>
